<?xml version="1.0" standalone="no"?>
<!DOCTYPE svg PUBLIC "-//W3C//DTD SVG 20010904//EN"
 "http://www.w3.org/TR/2001/REC-SVG-20010904/DTD/svg10.dtd">
<svg version="1.0" xmlns="http://www.w3.org/2000/svg"
 width="1024.000000pt" height="1024.000000pt" viewBox="0 0 1024.000000 1024.000000"
 preserveAspectRatio="xMidYMid meet">
<metadata>
Created by potrace 1.14, written by Peter Selinger 2001-2017
</metadata>
<g transform="translate(0.000000,1024.000000) scale(0.100000,-0.100000)"
fill="#000000" stroke="none">
<path d="M4559 9655 c-168 -18 -479 -74 -643 -116 -733 -185 -1464 -570 -1997
-1051 -273 -248 -598 -618 -776 -883 -423 -633 -680 -1345 -769 -2130 -34
-305 -29 -768 11 -1082 54 -413 208 -952 375 -1318 114 -248 191 -393 330
-620 200 -327 510 -695 800 -950 445 -391 1070 -746 1648 -934 328 -108 569
-159 972 -207 198 -24 706 -24 897 -1 403 50 661 108 1021 231 288 98 635 260
894 418 73 44 145 88 160 97 46 27 138 91 243 170 379 282 666 586 967 1021
288 417 559 1019 682 1515 104 420 144 696 153 1070 11 488 -38 895 -167 1366
-124 454 -364 983 -599 1319 -24 36 -54 79 -66 95 -62 92 -207 276 -306 390
-411 472 -940 879 -1504 1155 -322 158 -545 239 -950 345 -127 33 -431 82
-619 100 -192 18 -591 18 -757 0z m176 -930 c69 -18 137 -53 199 -100 45 -34
49 -35 69 -20 163 119 315 162 478 135 220 -37 398 -166 490 -355 22 -47 43
-103 46 -125 6 -45 25 -65 69 -73 34 -7 74 14 74 39 0 21 8 18 79 -26 170
-104 270 -258 274 -423 2 -51 -1 -61 -13 -57 -8 2 -57 6 -107 8 -51 2 -93 5
-93 8 0 3 11 27 25 54 35 69 31 77 -19 36 -53 -44 -70 -47 -56 -10 6 15 20 40
31 55 11 16 19 29 17 29 -2 0 -30 -11 -63 -25 -115 -47 -253 -27 -322 47 -31
33 -70 122 -88 203 -26 114 -35 145 -43 145 -4 0 -8 -9 -9 -20 -5 -60 -77
-147 -160 -192 -183 -100 -468 -35 -593 134 l-26 36 -35 -46 c-19 -26 -62 -66
-96 -89 -91 -61 -155 -77 -293 -77 -142 1 -203 21 -284 95 -48 44 -61 63 -80
123 -4 10 -8 17 -10 15 -3 -2 -14 -51 -26 -109 -32 -160 -76 -229 -173 -270
-43 -19 -64 -22 -136 -18 -57 4 -102 12 -133 26 -27 12 -48 18 -48 14 0 -5 14
-27 30 -49 17 -23 27 -44 22 -47 -11 -6 -60 19 -89 46 -28 26 -29 19 -4 -30
10 -20 16 -43 13 -51 -2 -8 0 -11 5 -8 5 3 7 -10 5 -30 l-5 -36 -69 6 c-39 3
-90 14 -114 24 -41 17 -44 21 -44 56 0 59 46 184 96 259 52 77 115 135 195
178 61 32 79 37 79 18 0 -19 32 -48 52 -48 10 0 36 9 57 20 32 16 40 26 45 57
4 21 27 79 51 128 89 185 263 320 456 354 66 12 200 5 274 -14z m1772 -1047
c-3 -8 -6 -5 -6 6 -1 11 2 17 5 13 3 -3 4 -12 1 -19z m-1296 -13 c258 -27 405
-58 453 -96 54 -42 56 -55 56 -355 l0 -276 -22 6 c-13 4 -83 17 -156 29 -124
20 -133 23 -127 42 3 11 11 44 17 72 16 71 -2 193 -39 270 -40 82 -126 166
-210 205 -59 28 -81 33 -168 36 -88 3 -108 1 -168 -22 -123 -46 -198 -113
-249 -222 -50 -106 -58 -216 -23 -315 14 -37 13 -39 -8 -43 -81 -15 -246 -48
-265 -53 l-23 -5 3 273 c3 263 4 275 25 310 42 67 162 107 418 138 197 24 300
25 486 6z m-1921 -365 c91 -10 294 -57 398 -91 59 -20 62 -22 62 -54 l0 -33
-47 18 c-128 48 -483 107 -586 96 -79 -8 -92 -17 -118 -83 -31 -82 -39 -341
-14 -499 22 -141 70 -381 84 -417 6 -16 11 -34 11 -40 -1 -25 -81 179 -116
296 -47 156 -62 242 -70 397 -7 127 9 358 27 391 5 10 21 20 36 22 56 8 250 7
333 -3z m3792 -8 c18 -15 27 -72 38 -237 13 -209 -13 -411 -80 -615 -34 -105
-108 -275 -117 -267 -1 2 17 82 41 178 53 208 76 376 76 547 0 225 -24 306
-96 330 -87 30 -464 -22 -662 -92 l-42 -15 0 33 c0 32 0 32 100 64 105 33 251
66 366 81 101 14 357 9 376 -7z m-3329 -709 c4 -37 1 -41 -107 -153 -139 -142
-175 -186 -265 -325 -114 -175 -212 -382 -198 -419 17 -44 215 -65 305 -32 52
19 46 4 -11 -26 -57 -29 -187 -37 -253 -14 -26 9 -52 16 -56 16 -13 0 -45 -77
-53 -127 -7 -43 -7 -43 -51 -43 l-43 0 5 33 c13 69 46 190 65 240 76 192 204
410 344 584 60 75 291 303 306 303 4 0 9 -17 12 -37z m1350 -454 c85 -44 173
-158 225 -296 29 -74 77 -280 84 -361 3 -32 6 -34 98 -66 233 -81 538 -221
708 -326 85 -52 261 -179 280 -202 10 -13 3 -21 -45 -53 -32 -21 -112 -66
-178 -100 -351 -179 -769 -284 -1210 -302 -383 -15 -884 87 -1232 252 -109 52
-303 166 -324 191 -25 30 299 242 564 369 138 66 398 176 467 197 37 12 40 15
40 50 0 114 81 385 146 491 49 79 127 146 204 174 44 17 120 9 173 -18z m-960
-229 c31 -24 43 -70 26 -102 -53 -105 -205 -53 -169 58 21 63 92 84 143 44z
m1718 5 c92 -48 26 -182 -75 -154 -69 19 -87 89 -37 140 33 33 67 37 112 14z
m-1576 -150 c0 -27 -3 -30 -30 -30 -21 0 -31 5 -33 18 -5 25 17 49 42 45 16
-2 21 -10 21 -33z m1725 16 c12 -23 5 -47 -17 -55 -33 -13 -57 36 -31 62 18
18 36 15 48 -7z m545 -128 c30 -8 83 -13 132 -11 73 3 81 1 67 -12 -9 -9 -40
-16 -87 -18 -59 -3 -84 0 -125 18 -28 12 -57 29 -64 38 -11 14 -10 15 7 7 11
-4 43 -14 70 -22z m-3485 -348 c-7 -8 -10 -29 -7 -47 3 -18 7 -42 9 -53 2 -15
-3 -21 -21 -23 -32 -5 -41 12 -41 81 l0 57 36 0 c31 0 35 -2 24 -15z m60 -237
c0 -2 -11 -25 -24 -53 -14 -27 -22 -53 -20 -57 3 -5 3 -8 0 -8 -9 0 -36 58
-36 79 0 12 10 23 28 29 26 10 52 15 52 10z m-550 -193 c13 -14 21 -25 18 -25
-2 0 -15 11 -28 25 -13 14 -21 25 -18 25 2 0 15 -11 28 -25z m4849 -21 c41 -9
40 -24 -3 -24 -90 0 -297 -59 -338 -97 -28 -25 -34 -6 -7 23 28 31 123 81 177
93 45 11 129 13 171 5z m-4789 -265 c52 -63 149 -178 215 -255 278 -325 675
-811 675 -826 0 -33 -116 97 -395 442 -60 74 -125 155 -145 180 -44 54 -265
329 -300 373 -14 18 -68 83 -120 146 -156 187 -165 199 -93 126 38 -39 111
-122 163 -186z m249 -49 c108 -113 250 -261 316 -330 134 -140 498 -545 503
-560 2 -6 -3 -10 -12 -10 -8 0 -122 118 -253 262 -131 145 -269 297 -308 338
-38 41 -106 116 -150 165 -44 49 -103 114 -130 145 -78 85 -253 291 -204 240
24 -25 131 -137 238 -250z m5047 165 c39 -10 82 -26 95 -37 l24 -20 -35 6
c-19 3 -73 12 -120 20 -128 24 -234 21 -327 -9 -63 -20 -123 -29 -123 -19 0
14 128 66 190 78 50 9 227 -2 296 -19z m-950 -79 c19 -19 34 -41 34 -49 0 -9
-18 3 -45 30 -25 24 -45 46 -45 48 0 15 26 1 56 -29z m-3508 -237 c308 -116
809 -225 1194 -260 267 -24 694 -3 1037 52 68 11 125 18 127 16 8 -8 -336 -83
-516 -112 -383 -63 -930 3 -1520 181 -201 61 -323 104 -395 140 -79 39 -72 37
73 -17z m-791 -175 c3 -10 -142 -56 -218 -68 -20 -4 -52 0 -75 8 -36 13 -37
14 -14 19 14 3 48 8 75 12 28 3 77 14 110 25 63 20 116 22 122 4z m3991 -310
c12 -25 17 -42 11 -38 -7 4 -9 0 -5 -12 11 -37 68 -291 82 -369 15 -84 19
-271 6 -279 -4 -2 -15 13 -25 33 -76 156 -213 238 -355 213 -32 -6 -66 -14
-76 -18 -17 -6 -18 -4 -12 22 3 16 25 67 48 114 32 65 58 101 115 157 40 40
71 73 68 73 -23 0 -173 -96 -262 -166 -48 -39 -125 -138 -159 -205 -16 -33
-31 -49 -50 -53 -46 -12 -134 -77 -169 -124 -32 -45 -45 -74 -64 -148 -8 -30
-18 -44 -34 -48 -12 -3 -78 -42 -147 -85 -68 -44 -126 -78 -128 -76 -2 2 13
25 34 51 22 26 59 75 84 110 168 234 361 454 500 571 60 51 489 322 511 323 3
0 15 -21 27 -46z m-3608 -240 c-50 -12 -725 -137 -790 -147 -8 -1 -16 5 -18
14 -2 13 18 21 104 39 136 28 615 98 674 98 25 0 38 -2 30 -4z m1029 -75 c52
-22 53 -23 28 -30 -17 -5 -44 0 -77 12 -62 24 -94 24 -146 0 -92 -42 -153
-124 -154 -208 0 -52 -11 -59 -39 -29 l-22 23 24 66 c36 99 47 111 134 146 43
18 87 36 98 41 30 14 93 6 154 -21z m264 -124 c145 -77 134 -86 -18 -14 -84
40 -115 49 -139 45 -17 -3 -79 -34 -136 -68 -58 -33 -123 -70 -145 -82 -22
-11 -46 -26 -53 -33 -14 -14 -22 -16 -22 -8 0 8 139 108 194 140 45 27 172 83
189 84 5 1 63 -28 130 -64z m-951 -81 c45 -15 127 -85 149 -127 9 -17 6 -16
-23 6 -131 100 -303 94 -388 -13 -58 -73 -73 -152 -44 -236 16 -46 15 -47 -9
-71 l-25 -25 -20 63 c-11 35 -23 79 -26 96 -7 39 10 136 31 178 31 61 96 115
163 136 43 13 145 10 192 -7z m1265 -75 c45 -22 102 -58 125 -80 38 -34 39
-37 13 -24 -46 23 -67 18 -115 -22 -41 -35 -100 -140 -100 -177 0 -14 -37 -33
-46 -24 -8 8 28 111 50 147 13 20 44 55 70 79 l46 42 -33 20 c-17 11 -51 27
-75 36 -40 16 -45 16 -82 -1 -39 -18 -73 -48 -94 -83 -6 -11 -24 -38 -39 -61
-17 -26 -32 -67 -38 -104 -6 -34 -11 -63 -13 -64 -1 -2 -10 3 -18 10 -14 10
-15 21 -7 72 6 33 20 76 33 95 12 19 33 51 46 70 24 38 138 109 175 110 10 0
56 -18 102 -41z m1888 -1 c54 -12 155 -58 172 -80 6 -7 14 -24 18 -36 l7 -24
-21 21 c-18 18 -30 22 -56 21 -3 -1 -13 6 -22 15 -25 25 -36 4 -23 -46 9 -34
8 -52 -1 -74 -7 -17 -12 -32 -11 -35 0 -3 -8 -6 -18 -6 -13 0 -20 10 -24 31
-11 55 -54 134 -101 184 l-47 50 39 -5 c21 -3 61 -10 88 -16z m-1121 -4 c6
-16 -251 -454 -267 -454 -4 0 -6 4 -2 9 3 5 -2 11 -10 13 -19 4 172 342 244
431 17 21 27 22 35 1z m808 -40 c84 -28 147 -114 173 -233 l7 -33 -123 4 c-96
4 -137 10 -181 27 -59 23 -103 64 -114 107 -7 26 -19 31 -27 12 -4 -10 -6 -10
-6 -1 -2 23 64 87 114 109 60 27 96 29 157 8z m355 -246 c-3 -8 -6 -5 -6 6 -1
11 2 17 5 13 3 -3 4 -12 1 -19z m-1837 -123 c0 -14 5 -25 10 -25 6 0 15 -11
20 -25 13 -33 -4 -62 -73 -125 l-57 -52 0 36 c0 35 5 43 45 71 17 11 18 16 6
27 -11 11 -15 10 -25 -7 -6 -11 -40 -50 -75 -87 -35 -38 -61 -71 -58 -75 4 -3
2 -12 -3 -19 -8 -8 -29 -10 -68 -7 -45 4 -60 2 -71 -11 -18 -21 -26 -20 -61 6
-25 18 -33 20 -55 10 -15 -7 -37 -9 -51 -6 -23 6 -26 9 -28 34 -1 5 19 20 43
32 25 13 54 35 65 50 19 27 19 28 1 48 -23 25 -35 26 -28 1 3 -13 -6 -27 -32
-47 -31 -23 -40 -26 -56 -16 -10 7 -26 12 -36 12 -18 0 -53 28 -53 42 0 4 5 8
12 8 16 0 58 40 58 56 0 6 7 17 15 24 12 10 20 9 40 -4 41 -27 153 -49 214
-42 72 9 174 45 236 84 61 38 65 39 65 7z m-616 -4 c3 -5 -1 -14 -9 -21 -13
-10 -15 -9 -15 9 0 21 14 28 24 12z m56 -31 c0 -5 -2 -10 -4 -10 -3 0 -8 5
-11 10 -3 6 -1 10 4 10 6 0 11 -4 11 -10z m-1608 -95 c95 -13 234 -32 308 -41
89 -11 144 -23 160 -34 14 -9 57 -30 95 -46 l70 -28 255 -2 c319 -1 350 -5
437 -56 92 -53 128 -68 173 -68 25 0 40 -5 44 -15 9 -23 85 -55 132 -55 23 0
46 -6 52 -12 8 -10 0 -12 -38 -10 -41 3 -53 0 -74 -21 -29 -29 -33 -58 -41
-298 -8 -222 -15 -212 172 -221 122 -5 141 -4 163 12 28 19 35 40 26 76 -9 35
-61 54 -146 54 -68 0 -70 1 -70 25 0 23 2 24 82 27 77 3 83 5 97 29 35 63 -18
109 -124 109 -54 0 -55 0 -55 30 l0 30 90 0 c84 0 93 2 116 25 18 18 23 32 19
48 -8 27 -51 67 -72 67 -13 0 -13 3 -3 15 8 10 30 15 62 15 59 0 112 21 128
49 6 12 15 19 19 17 17 -11 88 18 121 49 l35 33 300 6 c453 10 1013 40 1315
72 258 27 656 82 894 125 151 26 192 25 257 -9 39 -20 62 -41 84 -77 l30 -48
3 -281 c4 -342 3 -350 -71 -371 -217 -62 -756 -140 -1417 -204 -555 -54 -594
-56 -1280 -55 -570 0 -679 3 -940 23 -352 26 -632 54 -830 81 -80 11 -199 27
-265 36 -144 19 -472 70 -535 83 -25 6 -80 17 -122 26 l-77 16 -11 55 c-8 35
-10 146 -8 312 3 237 5 261 24 303 34 73 121 128 206 129 21 0 115 -11 210
-25z"/>
<path d="M4887 5587 c-138 -32 -217 -146 -174 -250 16 -38 83 -101 132 -124
19 -9 35 -19 35 -23 0 -13 -85 -59 -132 -70 -110 -27 -248 30 -248 102 0 24
-41 42 -75 34 -19 -5 -32 -20 -46 -52 -19 -42 -19 -48 -5 -97 25 -85 110 -163
223 -203 49 -17 51 -19 62 -71 42 -184 175 -306 336 -306 162 0 278 102 327
287 17 67 29 86 55 86 24 0 107 41 146 72 95 76 127 191 71 257 -18 21 -35 31
-54 31 -31 0 -39 -8 -55 -54 -6 -19 -28 -40 -60 -60 -44 -27 -59 -31 -125 -30
-43 0 -86 6 -100 13 -29 16 -80 61 -80 72 0 4 15 13 34 19 45 14 112 88 125
136 22 80 -34 172 -129 213 -63 27 -184 35 -263 18z m221 -122 c32 -14 40 -29
22 -40 -5 -3 -34 2 -65 11 -57 16 -108 12 -192 -14 -26 -8 -33 -8 -33 2 0 56
169 82 268 41z"/>
<path d="M4535 2740 c-8 -13 3 -30 21 -30 18 0 18 14 0 29 -10 8 -16 9 -21 1z"/>
<path d="M4404 2695 c24 -18 39 -20 34 -2 -3 6 -15 13 -29 15 -23 2 -23 2 -5
-13z"/>
<path d="M2492 2553 c-82 -29 -149 -121 -159 -217 -13 -132 67 -239 210 -281
202 -59 384 165 293 360 -28 60 -99 127 -154 143 -53 16 -137 14 -190 -5z
m169 -146 c44 -30 61 -63 55 -110 -17 -143 -236 -132 -236 11 0 99 100 154
181 99z"/>
<path d="M7196 2539 c-29 -22 -33 -60 -16 -134 5 -22 18 -103 29 -179 14 -89
27 -146 37 -157 21 -24 68 -33 94 -19 41 22 42 50 10 228 -16 92 -30 180 -30
195 0 33 -48 87 -78 87 -11 0 -31 -9 -46 -21z"/>
<path d="M6973 2504 c-27 -27 -27 -28 -8 -150 l7 -41 -68 -11 c-50 -8 -70 -8
-75 0 -4 6 -10 40 -14 75 -8 74 -29 103 -73 103 -37 0 -72 -37 -72 -75 0 -25
18 -145 56 -382 9 -59 69 -80 118 -42 28 22 33 53 16 124 -5 22 -8 41 -6 42 1
1 33 9 71 17 47 10 72 11 76 4 4 -5 9 -38 13 -71 7 -67 23 -91 68 -102 21 -6
33 -1 54 20 31 31 31 31 -15 300 -26 153 -31 171 -55 192 -35 30 -61 29 -93
-3z"/>
<path d="M2984 2498 c-12 -5 -26 -20 -32 -32 -6 -11 -22 -113 -36 -226 -23
-185 -24 -206 -10 -228 22 -34 59 -45 93 -27 34 17 41 33 41 91 0 65 25 59 80
-22 60 -89 105 -127 137 -119 67 16 69 62 6 146 -32 42 -43 64 -34 67 7 2 28
18 46 34 89 78 65 222 -47 279 -37 19 -167 49 -208 48 -8 0 -25 -5 -36 -11z
m191 -168 c21 -17 19 -43 -5 -65 -25 -23 -115 -13 -106 12 3 8 6 28 6 45 0 30
0 31 45 26 25 -3 52 -11 60 -18z"/>
<path d="M6393 2451 c-128 -33 -185 -155 -118 -257 21 -32 78 -60 155 -74 72
-14 91 -25 83 -45 -8 -24 -67 -29 -122 -10 -57 18 -77 12 -105 -36 -15 -26
-16 -30 -1 -53 34 -52 154 -81 231 -56 120 38 174 142 125 239 -27 51 -58 69
-154 89 -71 15 -82 20 -85 39 -4 31 33 39 99 22 51 -13 52 -13 75 14 40 46 29
84 -32 115 -29 15 -113 22 -151 13z"/>
<path d="M3437 2428 c-24 -20 -28 -34 -37 -123 -6 -55 -15 -148 -22 -208 -13
-126 -6 -150 47 -173 53 -22 201 -19 248 5 20 10 37 15 37 10 0 -5 9 -18 20
-29 17 -17 33 -20 114 -20 83 0 100 3 147 28 155 81 185 285 61 410 -49 48
-108 72 -201 79 -65 5 -85 3 -105 -10 -23 -16 -27 -16 -58 2 -39 23 -92 37
-169 46 -49 6 -59 4 -82 -17z m200 -156 c37 -20 63 -62 63 -103 0 -69 -66
-119 -156 -119 l-31 0 8 48 c4 26 10 81 14 123 l6 76 37 -7 c20 -3 47 -12 59
-18z m293 -30 c109 -54 61 -212 -66 -212 l-37 0 7 38 c3 20 6 72 6 115 l0 77
28 0 c15 0 43 -8 62 -18z"/>
<path d="M6059 2389 c-23 -23 -23 -36 -2 -260 5 -59 3 -69 -16 -88 -26 -26
-71 -27 -100 -3 -23 18 -34 72 -47 234 -4 52 -12 85 -23 100 -23 28 -75 29
-103 1 -20 -21 -20 -25 -9 -166 13 -164 20 -195 55 -247 74 -112 278 -107 356
7 21 31 26 51 28 122 6 133 -13 269 -39 297 -28 30 -72 31 -100 3z"/>
<path d="M5424 2361 c-95 -43 -126 -150 -69 -237 19 -29 96 -70 151 -79 61
-12 76 -22 64 -45 -13 -24 -72 -27 -110 -5 -37 21 -76 18 -100 -7 -29 -32 -25
-62 15 -96 66 -58 161 -68 245 -24 69 35 92 67 98 137 4 47 1 61 -22 95 -29
44 -69 65 -160 84 -33 7 -62 18 -64 24 -2 6 9 18 23 28 25 16 29 16 83 -1 l56
-17 28 33 c15 18 28 41 28 49 0 21 -37 56 -73 69 -45 17 -147 13 -193 -8z"/>
<path d="M4623 2343 c-16 -23 -18 -56 -21 -238 -3 -202 -2 -212 18 -238 26
-33 71 -36 100 -7 16 16 20 33 20 80 0 52 2 60 19 60 11 0 28 -14 40 -34 30
-48 117 -126 141 -126 22 0 70 41 70 60 0 18 -20 52 -60 100 l-38 45 25 19
c105 79 72 252 -56 295 -19 6 -80 11 -137 11 -101 0 -104 -1 -121 -27z m225
-126 c35 -35 -9 -87 -74 -87 -23 0 -24 3 -24 56 l0 57 41 -6 c23 -3 48 -12 57
-20z"/>
</g>
</svg>
